# xmcd
#
# Track frame offsets:
#	150
#	12665
#	22972
#	31533
#	43530
#	53570
#	64079
#	75245
#	87523
#	98574
#	110514
#	121847
#	134523
#	143611
#	153923
#	166798
#	185268
#	200195
#
# Disc length: 2858 seconds
#
# Revision: 1
# Processed by: cddbd v1.5.1PL2 Copyright (c) Steve Scherf et al.
# Submitted via: audiograbber 1.83.01
#
DISCID=da0b2812
DTITLE=Johnny Cash - I Walk the Line ... Songs of Love
DYEAR=2006
DGENRE=Country
TTITLE0=I WALK THE LINE
TTITLE1=THE WAYS OF A WOMAN IN LOVE
TTITLE2=GUESS THINGS HAPPEN THAT WAY
TTITLE3=YOU'RE THE NEAREST THING TO HEAVEN
TTITLE4=BALLAD OF A TEENAGE QUEEN
TTITLE5=THERE YOU GO
TTITLE6=CRY, CRY, CRY
TTITLE7=HOME OF THE BLUES
TTITLE8=TRAIN OF LOVE
TTITLE9=SO DOGGONE LONESOME
TTITLE10=I LOVE YOU BECAUSE
TTITLE11=GIVE MY LOVE TO ROSE
TTITLE12=KATY TOO
TTITLE13=STRAIGHT A'S IN LOVE
TTITLE14=FOLSOM PRISON BLUES
TTITLE15=ONE PIECE AT A TIME
TTITLE16=THERE AIN'T NO GOOD CHAIN GANG (WITH WAYLON JENNINGS)
TTITLE17=ONEY
EXTD=
EXTT0=
EXTT1=
EXTT2=
EXTT3=
EXTT4=
EXTT5=
EXTT6=
EXTT7=
EXTT8=
EXTT9=
EXTT10=
EXTT11=
EXTT12=
EXTT13=
EXTT14=
EXTT15=
EXTT16=
EXTT17=
PLAYORDER=
